0
SECTION
2
HEADER
9
$INSUNITS
70
4
9
$ACADVER
1
AC1014
9
$HANDSEED
5
FFFF
0
ENDSEC
0
SECTION
2
TABLES
0
TABLE
2
VPORT
5
8
100
AcDbSymbolTable
0
ENDTAB
0
TABLE
2
LTYPE
5
5
100
AcDbSymbolTable
0
LTYPE
5
14
100
AcDbSymbolTableRecord
100
AcDbLinetypeTableRecord
2
BYBLOCK
70
0
0
LTYPE
5
15
100
AcDbSymbolTableRecord
100
AcDbLinetypeTableRecord
2
BYLAYER
70
0
0
ENDTAB
0
TABLE
2
LAYER
5
2
100
AcDbSymbolTable
70
2
0
LAYER
5
50
100
AcDbSymbolTableRecord
100
AcDbLayerTableRecord
2
0
70
0
6
CONTINUOUS
0
ENDTAB
0
TABLE
2
STYLE
5
3
100
AcDbSymbolTable
70
1
0
STYLE
5
11
100
AcDbSymbolTableRecord
100
AcDbTextStyleTableRecord
2
STANDARD
70
0
0
ENDTAB
0
TABLE
2
VIEW
5
6
100
AcDbSymbolTable
70
0
0
ENDTAB
0
TABLE
2
UCS
5
7
100
AcDbSymbolTable
70
0
0
ENDTAB
0
TABLE
2
APPID
5
9
100
AcDbSymbolTable
70
2
0
APPID
5
12
100
AcDbSymbolTableRecord
100
AcDbRegAppTableRecord
2
ACAD
70
0
0
ENDTAB
0
TABLE
2
DIMSTYLE
5
A
100
AcDbSymbolTable
70
1
0
ENDTAB
0
TABLE
2
BLOCK_RECORD
5
1
100
AcDbSymbolTable
70
1
0
BLOCK_RECORD
5
1F
100
AcDbSymbolTableRecord
100
AcDbBlockTableRecord
2
*MODEL_SPACE
0
BLOCK_RECORD
5
1B
100
AcDbSymbolTableRecord
100
AcDbBlockTableRecord
2
*PAPER_SPACE
0
ENDTAB
0
ENDSEC
0
SECTION
2
BLOCKS
0
BLOCK
5
20
100
AcDbEntity
100
AcDbBlockBegin
2
*MODEL_SPACE
0
ENDBLK
5
21
100
AcDbEntity
100
AcDbBlockEnd
0
BLOCK
5
1C
100
AcDbEntity
100
AcDbBlockBegin
2
*PAPER_SPACE
0
ENDBLK
5
1D
100
AcDbEntity
100
AcDbBlockEnd
0
ENDSEC
0
SECTION
2
ENTITIES
0
LWPOLYLINE
5
100
100
AcDbEntity
8
0
100
AcDbPolyline
90
36
70
1
43
0.0
10
544.67000038146978
20
32.833333333333329
10
544.67000038146978
20
10
10
16.350000381469727
20
10
10
16.350000381469727
20
32.833333333333329
10
10.000000381469718
20
32.833333333333329
10
10.000000381469734
20
55.666666666666664
10
16.350000381469716
20
55.666666666666664
10
16.350000381469727
20
78.5
10
10.000000381469718
20
78.499999999999986
10
10.000000381469738
20
101.33333333333333
10
16.350000381469716
20
101.33333333333333
10
16.350000381469727
20
124.16666666666666
10
10.000000381469718
20
124.16666666666669
10
10.000000381469743
20
147
10
16.350000381469716
20
147
10
16.350000381469727
20
169.83333333333334
10
10.000000381469718
20
169.83333333333331
10
10.000000381469746
20
192.66666666666666
10
16.350000381469716
20
192.66666666666666
10
16.350000381469698
20
209.15000000000003
10
544.67000038146978
20
209.15000000000003
10
544.67000038146978
20
192.66666666666666
10
551.0200003814698
20
192.66666666666666
10
551.0200003814698
20
169.83333333333331
10
544.67000038146978
20
169.83333333333334
10
544.67000038146978
20
147
10
551.0200003814698
20
147
10
551.0200003814698
20
124.16666666666669
10
544.67000038146978
20
124.16666666666666
10
544.67000038146978
20
101.33333333333333
10
551.0200003814698
20
101.33333333333333
10
551.0200003814698
20
78.499999999999986
10
544.67000038146978
20
78.5
10
544.67000038146978
20
55.666666666666664
10
551.0200003814698
20
55.666666666666664
10
551.0200003814698
20
32.833333333333329
0
CIRCLE
5
101
100
AcDbEntity
8
0
100
AcDbCircle
10
501.02000038146974
20
112.75000000000003
30
0
40
5.4999999999999716
210
0
220
0
230
1
0
CIRCLE
5
102
100
AcDbEntity
8
0
100
AcDbCircle
10
430.68500038146976
20
88.975000000000009
30
0
40
2.0000000000000284
210
0
220
0
230
1
0
CIRCLE
5
103
100
AcDbEntity
8
0
100
AcDbCircle
10
430.81572284639321
20
137.17733125558919
30
0
40
2.0000000000000284
210
0
220
0
230
1
0
CIRCLE
5
104
100
AcDbEntity
8
0
100
AcDbCircle
10
332.81716435502778
20
137.70887016709065
30
0
40
1.9999999999999929
210
0
220
0
230
1
0
LWPOLYLINE
5
105
100
AcDbEntity
8
0
100
AcDbPolyline
90
4
70
1
43
0.0
10
462.0200003814698
20
103.75000000000001
10
474.0200003814698
20
103.75000000000001
10
474.0200003814698
20
121.75000000000003
10
462.0200003814698
20
121.75000000000003
0
CIRCLE
5
106
100
AcDbEntity
8
0
100
AcDbCircle
10
136.82004737229701
20
138.77194799009354
30
0
40
1.9999999999999929
210
0
220
0
230
1
0
CIRCLE
5
107
100
AcDbEntity
8
0
100
AcDbCircle
10
332.68500038146976
20
88.975000000000009
30
0
40
1.9999999999999929
210
0
220
0
230
1
0
CIRCLE
5
108
100
AcDbEntity
8
0
100
AcDbCircle
10
136.68500038146971
20
88.975000000000009
30
0
40
1.9999999999999929
210
0
220
0
230
1
0
CIRCLE
5
109
100
AcDbEntity
8
0
100
AcDbCircle
10
234.68500038146973
20
88.975000000000009
30
0
40
1.9999999999999929
210
0
220
0
230
1
0
CIRCLE
5
110
100
AcDbEntity
8
0
100
AcDbCircle
10
234.81860586366241
20
138.24040907859211
30
0
40
1.9999999999999929
210
0
220
0
230
1
0
LWPOLYLINE
5
111
100
AcDbEntity
8
0
100
AcDbPolyline
90
20
70
1
43
0.0
10
544.67000038146966
20
257.11278467523334
10
544.67000038146966
20
244.4583846752333
10
551.02000038146969
20
244.45838467523333
10
551.02000038146969
20
231.80398467523332
10
544.67000038146966
20
231.80398467523332
10
544.67000038146966
20
219.14998467523336
10
16.350000381469698
20
219.14998467523333
10
16.350000381469727
20
231.80398467523332
10
10.000000381469736
20
231.80398467523332
10
10.000000381469727
20
244.4583846752333
10
16.350000381469734
20
244.45838467523333
10
16.350000381469727
20
257.11278467523334
10
10.000000381469736
20
257.11278467523329
10
10.000000381469727
20
269.76718467523335
10
16.350000381469727
20
269.7671846752333
10
16.350000381469727
20
282.42786390644653
10
544.67000038146966
20
282.42786390644653
10
544.67000038146966
20
269.7671846752333
10
551.02000038146969
20
269.76718467523335
10
551.02000038146969
20
257.11278467523329
0
LWPOLYLINE
5
112
100
AcDbEntity
8
0
100
AcDbPolyline
90
20
70
1
43
0.0
10
16.349982910156278
20
314.98785034179707
10
16.349982910156282
20
326.26785034179704
10
9.9999829101562909
20
326.26785034179699
10
9.9999829101562909
20
337.54785034179696
10
16.349982910156285
20
337.54785034179702
10
16.349982910156285
20
348.82785034179705
10
544.66998291015625
20
348.82785034179688
10
544.66998291015625
20
337.5478503417969
10
551.01998291015639
20
337.5478503417969
10
551.01998291015627
20
326.26785034179693
10
544.66998291015625
20
326.26785034179693
10
544.66998291015625
20
314.9878503417969
10
551.01998291015639
20
314.9878503417969
10
551.01998291015627
20
303.70785034179687
10
544.66998291015625
20
303.70785034179687
10
544.66998291015625
20
292.4278503417969
10
16.349982910156275
20
292.42785034179701
10
16.349982910156278
20
303.70785034179704
10
9.9999829101562909
20
303.70785034179704
10
9.9999829101562909
20
314.98785034179707
0
ENDSEC
0
SECTION
2
OBJECTS
0
DICTIONARY
5
C
100
AcDbDictionary
3
ACAD_GROUP
350
D
3
ACAD_MLINESTYLE
350
17
0
DICTIONARY
5
D
100
AcDbDictionary
0
DICTIONARY
5
1A
330
C
100
AcDbDictionary
0
DICTIONARY
5
17
100
AcDbDictionary
0
ENDSEC
0
EOF
