0
SECTION
2
HEADER
9
$INSUNITS
70
4
9
$ACADVER
1
AC1014
9
$HANDSEED
5
FFFF
0
ENDSEC
0
SECTION
2
TABLES
0
TABLE
2
VPORT
5
8
100
AcDbSymbolTable
0
ENDTAB
0
TABLE
2
LTYPE
5
5
100
AcDbSymbolTable
0
LTYPE
5
14
100
AcDbSymbolTableRecord
100
AcDbLinetypeTableRecord
2
BYBLOCK
70
0
0
LTYPE
5
15
100
AcDbSymbolTableRecord
100
AcDbLinetypeTableRecord
2
BYLAYER
70
0
0
ENDTAB
0
TABLE
2
LAYER
5
2
100
AcDbSymbolTable
70
2
0
LAYER
5
50
100
AcDbSymbolTableRecord
100
AcDbLayerTableRecord
2
0
70
0
6
CONTINUOUS
0
ENDTAB
0
TABLE
2
STYLE
5
3
100
AcDbSymbolTable
70
1
0
STYLE
5
11
100
AcDbSymbolTableRecord
100
AcDbTextStyleTableRecord
2
STANDARD
70
0
0
ENDTAB
0
TABLE
2
VIEW
5
6
100
AcDbSymbolTable
70
0
0
ENDTAB
0
TABLE
2
UCS
5
7
100
AcDbSymbolTable
70
0
0
ENDTAB
0
TABLE
2
APPID
5
9
100
AcDbSymbolTable
70
2
0
APPID
5
12
100
AcDbSymbolTableRecord
100
AcDbRegAppTableRecord
2
ACAD
70
0
0
ENDTAB
0
TABLE
2
DIMSTYLE
5
A
100
AcDbSymbolTable
70
1
0
ENDTAB
0
TABLE
2
BLOCK_RECORD
5
1
100
AcDbSymbolTable
70
1
0
BLOCK_RECORD
5
1F
100
AcDbSymbolTableRecord
100
AcDbBlockTableRecord
2
*MODEL_SPACE
0
BLOCK_RECORD
5
1B
100
AcDbSymbolTableRecord
100
AcDbBlockTableRecord
2
*PAPER_SPACE
0
ENDTAB
0
ENDSEC
0
SECTION
2
BLOCKS
0
BLOCK
5
20
100
AcDbEntity
100
AcDbBlockBegin
2
*MODEL_SPACE
0
ENDBLK
5
21
100
AcDbEntity
100
AcDbBlockEnd
0
BLOCK
5
1C
100
AcDbEntity
100
AcDbBlockBegin
2
*PAPER_SPACE
0
ENDBLK
5
1D
100
AcDbEntity
100
AcDbBlockEnd
0
ENDSEC
0
SECTION
2
ENTITIES
0
LWPOLYLINE
5
100
100
AcDbEntity
8
0
100
AcDbPolyline
90
38
70
1
43
0.0
10
146.99999999999972
20
10.000039062499759
10
146.99999999999972
20
16.350039062499775
10
124.16666666666637
20
16.350039062499775
10
124.16666666666637
20
10.000039062499759
10
101.33333333333304
20
10.000039062499759
10
101.33333333333304
20
16.350039062499775
10
78.499999999999716
20
16.35003906249981
10
78.499999999999702
20
10.000039062499795
10
55.66666666666638
20
10.000039062499795
10
55.666666666666387
20
16.35003906249981
10
32.833333333333044
20
16.35003906249981
10
32.833333333333044
20
10.000039062499795
10
9.9999999999997122
20
10.000039062499795
10
9.9999999999997655
20
258.40003906249984
10
21.279999999999767
20
258.40003906249984
10
21.279999999999767
20
252.05003906249985
10
32.559999999999761
20
252.05003906249982
10
32.559999999999768
20
258.40003906249984
10
43.839999999999762
20
258.40003906249984
10
43.839999999999748
20
252.05003906249985
10
55.119999999999763
20
252.05003906249982
10
55.119999999999756
20
258.40003906249984
10
66.399999999999778
20
258.40003906249984
10
114.19999999999976
20
127.10003906249979
10
240.79999999999973
20
68.000039062499766
10
235.74063006077955
20
56.401483470611815
10
229.9202706480651
20
58.940364386847612
10
224.86074077933847
20
47.341442158146236
10
230.68110019205292
20
44.802561241910439
10
225.6215703233263
20
33.203639013209056
10
219.80121091061181
20
35.742519929444853
10
214.74168104188516
20
24.143597700743449
10
220.56204045459964
20
21.604716784507648
10
215.49999999999972
20
10.000039062499749
10
192.66666666666637
20
10.000039062499759
10
192.66666666666637
20
16.350039062499775
10
169.83333333333306
20
16.350039062499775
10
169.83333333333306
20
10.000039062499759
0
CIRCLE
5
101
100
AcDbEntity
8
0
100
AcDbCircle
10
224.49999999999974
20
60.200039062499791
30
0
40
2.1000000000000085
210
0
220
0
230
1
0
CIRCLE
5
102
100
AcDbEntity
8
0
100
AcDbCircle
10
112.99999999999974
20
112.20003906249983
30
0
40
2.1000000000000085
210
0
220
0
230
1
0
LWPOLYLINE
5
103
100
AcDbEntity
8
0
100
AcDbPolyline
90
4
70
1
43
0.0
10
74.599999999999753
20
127.10003906249979
42
0.99999999999999989
10
49.599999999999753
20
127.10003906249979
10
49.599999999999724
20
57.100039062499803
42
0.99999999999999989
10
74.599999999999739
20
57.100039062499803
0
CIRCLE
5
104
100
AcDbEntity
8
0
100
AcDbCircle
10
99.199999999999719
20
127.20003906249983
30
0
40
2.1000000000000085
210
0
220
0
230
1
0
CIRCLE
5
105
100
AcDbEntity
8
0
100
AcDbCircle
10
57.199999999999775
20
242.80003906249982
30
0
40
2.0999999999999996
210
0
220
0
230
1
0
LWPOLYLINE
5
106
100
AcDbEntity
8
0
100
AcDbPolyline
90
38
70
1
43
0.0
10
106.86373901367196
20
354.56724090576182
10
106.86373901367196
20
348.21724090576186
10
129.6970723470053
20
348.21724090576186
10
129.6970723470053
20
354.56724090576182
10
152.53040568033862
20
354.56724090576182
10
152.53040568033862
20
348.21724090576186
10
175.36373901367196
20
348.21724090576174
10
175.36373901367196
20
354.56724090576176
10
198.19707234700527
20
354.56724090576176
10
198.19707234700527
20
348.21724090576174
10
221.03040568033862
20
348.21724090576174
10
221.03040568033862
20
354.56724090576176
10
243.86373901367196
20
354.56724090576176
10
243.8637390136719
20
106.16724090576173
10
232.5837390136719
20
106.16724090576173
10
232.5837390136719
20
112.51724090576174
10
221.30373901367193
20
112.51724090576174
10
221.3037390136719
20
106.16724090576173
10
210.0237390136719
20
106.16724090576173
10
210.02373901367193
20
112.51724090576174
10
198.7437390136719
20
112.51724090576175
10
198.74373901367193
20
106.16724090576173
10
187.4637390136719
20
106.16724090576176
10
139.66373901367191
20
237.4672409057618
10
13.063739013671913
20
296.56724090576182
10
18.123108952892089
20
308.16579649764975
10
23.943468365606549
20
305.62691558141398
10
29.002998234333191
20
317.22583781011531
10
23.182638821618731
20
319.76471872635113
10
28.242168690345373
20
331.36364095505252
10
34.062528103059833
20
328.82476003881669
10
39.122057971786504
20
340.42368226751813
10
33.301698559072044
20
342.9625631837539
10
38.36373901367196
20
354.56724090576182
10
61.197072347005289
20
354.56724090576182
10
61.197072347005282
20
348.21724090576186
10
84.030405680338617
20
348.21724090576186
10
84.030405680338617
20
354.56724090576182
0
CIRCLE
5
107
100
AcDbEntity
8
0
100
AcDbCircle
10
29.363739013671903
20
304.36724090576178
30
0
40
2.1000000000000085
210
0
220
0
230
1
0
CIRCLE
5
108
100
AcDbEntity
8
0
100
AcDbCircle
10
140.86373901367193
20
252.36724090576175
30
0
40
2.1000000000000085
210
0
220
0
230
1
0
LWPOLYLINE
5
109
100
AcDbEntity
8
0
100
AcDbPolyline
90
4
70
1
43
0.0
10
179.26373901367191
20
237.4672409057618
42
0.99999999999999989
10
204.26373901367191
20
237.4672409057618
10
204.26373901367191
20
307.46724090576174
42
0.99999999999999989
10
179.26373901367191
20
307.46724090576174
0
CIRCLE
5
110
100
AcDbEntity
8
0
100
AcDbCircle
10
154.66373901367194
20
237.36724090576175
30
0
40
2.1000000000000085
210
0
220
0
230
1
0
CIRCLE
5
111
100
AcDbEntity
8
0
100
AcDbCircle
10
196.66373901367189
20
121.76724090576174
30
0
40
2.0999999999999996
210
0
220
0
230
1
0
ENDSEC
0
SECTION
2
OBJECTS
0
DICTIONARY
5
C
100
AcDbDictionary
3
ACAD_GROUP
350
D
3
ACAD_MLINESTYLE
350
17
0
DICTIONARY
5
D
100
AcDbDictionary
0
DICTIONARY
5
1A
330
C
100
AcDbDictionary
0
DICTIONARY
5
17
100
AcDbDictionary
0
ENDSEC
0
EOF
